<?xml version="1.0" encoding="UTF-8"?>
<svg id="Layer_2" data-name="Layer 2" xmlns="http://www.w3.org/2000/svg" viewBox="0 0 562.47 66.33">
  <defs>
    <style>
      .cls-1 {
        fill: #c8aa6f;
      }

      .cls-2 {
        letter-spacing: .3em;
      }

      .cls-3, .cls-4 {
        fill: #f0ede6;
      }

      .cls-5 {
        letter-spacing: .3em;
      }

      .cls-6 {
        letter-spacing: .27em;
      }

      .cls-4 {
        font-family: Manrope-Regular, Manrope;
        font-size: 17.4px;
      }
    </style>
  </defs>
  <g id="Layer_1-2" data-name="Layer 1">
    <g>
      <g>
        <path class="cls-1" d="M0,64.38V1.27h36.39c8.45,0,14.88,1.41,19.27,4.24,4.39,2.83,6.58,7.04,6.58,12.63,0,3.58-.88,6.39-2.63,8.44-1.76,2.05-4.24,3.56-7.46,4.54s-7.01,1.59-11.36,1.85l.39-.68c3.19.06,6.19.29,9.02.68,2.83.39,5.32,1.11,7.46,2.15,2.15,1.04,3.84,2.49,5.07,4.34,1.23,1.85,1.85,4.28,1.85,7.27,0,3.9-1.04,7.14-3.12,9.71-2.08,2.57-4.98,4.5-8.68,5.8-3.71,1.3-8,2.02-12.88,2.15H0ZM12.97,28h22.92c4.1,0,7.25-.6,9.46-1.8,2.21-1.2,3.32-3.27,3.32-6.19s-1.11-4.99-3.32-6.19c-2.21-1.2-5.14-1.8-8.78-1.8H12.97v16ZM12.97,53.65h25.56c4.1,0,7.25-.67,9.46-2,2.21-1.33,3.32-3.46,3.32-6.39,0-2.15-.65-3.71-1.95-4.68-1.3-.98-3.02-1.58-5.17-1.8-2.15-.23-4.46-.34-6.93-.34H12.97v15.22Z"/>
        <path class="cls-1" d="M71.21,64.38V1.27h42.83c4.88,0,9.12.67,12.73,2,3.61,1.33,6.42,3.41,8.44,6.24,2.01,2.83,3.02,6.46,3.02,10.88,0,2.99-.52,5.53-1.56,7.61-1.04,2.08-2.49,3.77-4.34,5.07-1.85,1.3-3.98,2.29-6.39,2.97-2.41.68-4.98,1.12-7.71,1.32l-1.37-.78c4.55.07,8.29.44,11.22,1.12,2.93.68,5.12,1.92,6.58,3.71,1.46,1.79,2.19,4.44,2.19,7.95v15.02h-12.97v-14.14c0-2.41-.42-4.28-1.27-5.61-.85-1.33-2.36-2.26-4.54-2.78-2.18-.52-5.32-.78-9.41-.78h-24.48v23.31h-12.97ZM84.19,30.92h29.85c3.64,0,6.42-.88,8.34-2.63,1.92-1.76,2.88-4.13,2.88-7.12s-.96-5.04-2.88-6.54c-1.92-1.5-4.7-2.24-8.34-2.24h-29.85v18.53Z"/>
        <path class="cls-1" d="M148.76,1.27h12.97v63.12h-12.97V1.27Z"/>
        <path class="cls-1" d="M209.73,1.27c7.09,0,13.01.85,17.75,2.54,4.75,1.69,8.54,3.98,11.36,6.88,2.83,2.89,4.84,6.23,6.05,10,1.2,3.77,1.8,7.74,1.8,11.9s-.67,8.16-2,12c-1.33,3.84-3.45,7.24-6.34,10.19-2.89,2.96-6.7,5.3-11.41,7.02-4.72,1.72-10.45,2.58-17.22,2.58h-36.09V1.27h36.09ZM186.61,53.26h22.83c4.68,0,8.57-.57,11.66-1.71,3.09-1.14,5.54-2.68,7.37-4.63,1.82-1.95,3.12-4.16,3.9-6.63.78-2.47,1.17-5.04,1.17-7.71s-.39-5.2-1.17-7.61c-.78-2.41-2.08-4.55-3.9-6.44-1.82-1.89-4.28-3.38-7.37-4.49-3.09-1.1-6.97-1.66-11.66-1.66h-22.83v40.87Z"/>
        <path class="cls-1" d="M290.8,65.65c-5.85,0-11.14-.68-15.85-2.05-4.71-1.37-8.78-3.41-12.19-6.15s-6.03-6.11-7.85-10.15c-1.82-4.03-2.73-8.68-2.73-13.95s.96-10.06,2.88-14.19c1.92-4.13,4.65-7.62,8.2-10.49,3.54-2.86,7.77-5.02,12.68-6.49,4.91-1.46,10.36-2.19,16.34-2.19,7.09,0,13.2.99,18.34,2.98,5.14,1.98,9.18,4.76,12.14,8.34,2.96,3.58,4.63,7.84,5.02,12.78h-12.49c-.85-2.6-2.23-4.86-4.15-6.78-1.92-1.92-4.44-3.41-7.56-4.49-3.12-1.07-6.89-1.61-11.31-1.61-5.66,0-10.49.91-14.49,2.73-4,1.82-7.04,4.39-9.12,7.71-2.08,3.32-3.12,7.22-3.12,11.71s.91,8.11,2.73,11.27c1.82,3.16,4.63,5.58,8.44,7.27,3.81,1.69,8.67,2.54,14.58,2.54,4.55,0,8.57-.6,12.05-1.8,3.48-1.2,6.39-2.83,8.73-4.88,2.34-2.05,4-4.34,4.97-6.88l5.07-1.85c-.85,8.39-4.02,14.93-9.51,19.61-5.5,4.68-12.76,7.02-21.8,7.02ZM318.79,64.38c0-2.01.13-4.34.39-6.97.26-2.63.58-5.3.97-8,.39-2.7.75-5.19,1.07-7.46h-28.88v-8.29h37.65v30.73h-11.22Z"/>
        <path class="cls-1" d="M351.76,38.04v15.51h48.68v10.83h-61.65V1.27h61.55v10.83h-48.58v15.71h39.8v10.24h-39.8Z"/>
      </g>
      <text class="cls-4" transform="translate(460.1 18.11)"><tspan class="cls-2"><tspan x="0" y="0">STUDIO</tspan></tspan><tspan class="cls-2"><tspan x="0" y="21.72">BRAND &amp;</tspan></tspan><tspan class="cls-2" x="0" y="43.43">D</tspan><tspan class="cls-6" x="16.9" y="43.43">E</tspan><tspan class="cls-5" x="31.57" y="43.43">SIGN</tspan></text>
      <rect class="cls-3" x="434.8" y="0" width="1" height="65.65"/>
    </g>
  </g>
</svg>